<?xml version="1.0" standalone="no"?>
<!DOCTYPE svg PUBLIC "-//W3C//DTD SVG 20010904//EN"
 "http://www.w3.org/TR/2001/REC-SVG-20010904/DTD/svg10.dtd">
<svg version="1.0" xmlns="http://www.w3.org/2000/svg"
 width="512.000000pt" height="512.000000pt" viewBox="0 0 512.000000 512.000000"
 preserveAspectRatio="xMidYMid meet">
<metadata>
Created by potrace 1.14, written by Peter Selinger 2001-2017
</metadata>
<g transform="translate(0.000000,512.000000) scale(0.100000,-0.100000)"
fill="#000000" stroke="none">
<path d="M975 5113 c-75 -10 -230 -54 -303 -86 -125 -54 -247 -139 -347 -241
-131 -133 -216 -271 -269 -436 -53 -165 -51 -90 -51 -1795 0 -1497 1 -1594 18
-1665 10 -41 20 -82 22 -91 12 -53 78 -196 125 -271 71 -113 160 -212 263
-291 135 -104 237 -155 417 -205 l95 -26 1580 -3 c979 -1 1603 2 1640 8 295
47 571 215 744 452 55 75 123 210 155 310 57 171 55 117 52 1827 -3 1695 1
1582 -51 1750 -25 80 -94 221 -142 287 -166 233 -405 395 -668 454 -27 6 -59
14 -70 17 -22 7 -3160 12 -3210 5z"/>
</g>
</svg>
